Coordinates
version=1
nRows=9
nColumns=24
inDegrees=yes

Units are S.I. units (second, meters, Newtons, ...)
Angles are in degrees.

endheader
time	pelvis_tilt	pelvis_list	pelvis_rotation	pelvis_tx	pelvis_ty	pelvis_tz	hip_flexion_r	hip_adduction_r	hip_rotation_r	knee_angle_r	ankle_angle_r	subtalar_angle_r	mtp_angle_r	hip_flexion_l	hip_adduction_l	hip_rotation_l	knee_angle_l	ankle_angle_l	subtalar_angle_l	mtp_angle_l	lumbar_extension	lumbar_bending	lumbar_rotation
      1.10800000	     -1.95755965	      3.83463602	     -1.63421525	      0.06860712	      1.05759401	      0.32868295	     22.84178444	     -2.85102368	      0.04005173	    -69.31185847	     -0.73913564	    -15.91850959	      3.87418106	     14.26119099	      6.89415097	     -3.50795420	    -14.37265297	      4.70544922	     -0.25440895	     -0.07167888	      3.46038652	     -0.35936996	      1.39040315
      1.11216667	     -1.96700799	      3.83499227	     -1.67500453	      0.07371711	      1.05821529	      0.32857753	     23.41291939	     -2.78587592	      0.31461950	    -68.97987543	     -0.31217709	    -16.04781350	      3.84347110	     13.90356696	      6.92936669	     -3.43695650	    -14.25160911	      4.85826448	     -0.25338531	     -0.07767370	      3.43752988	     -0.28754710	      1.34523393
      1.11633333	     -1.99003609	      3.80306755	     -1.71091186	      0.07882950	      1.05882368	      0.32857711	     23.96855836	     -2.66901273	      0.58181636	    -68.56068923	      0.20308879	    -16.18411632	      3.81007359	     13.56431793	      6.91835453	     -3.41101657	    -14.14469565	      5.05022338	     -0.29691968	     -0.08524941	      3.43813089	     -0.23859860	      1.30275506
      1.12050000	     -2.00637158	      3.77240381	     -1.73653770	      0.08394319	      1.05943068	      0.32856009	     24.49414106	     -2.55872407	      0.83978655	    -68.06276871	      0.67081955	    -16.28241823	      3.77531072	     13.21392727	      6.91343531	     -3.35503954	    -14.03532662	      5.22469317	     -0.33881856	     -0.09407444	      3.43157717	     -0.20007416	      1.26239951
      1.12466667	     -2.03315368	      3.71006310	     -1.72889707	      0.08902180	      1.06002029	      0.32860141	     24.99835251	     -2.41164953	      1.07419895	    -67.45851200	      0.90261976	    -16.33618142	      3.76097030	     12.88199514	      6.86926636	     -3.26283544	    -13.94251748	      5.30605525	     -0.35996934	     -0.09770844	      3.36799380	     -0.18596694	      1.23809489
      1.12883333	     -2.04690442	      3.68368021	     -1.76287698	      0.09418917	      1.06060970	      0.32855123	     25.47395734	     -2.30598011	      1.32167963	    -66.82491537	      1.55859962	    -16.46943872	      3.70431844	     12.51922280	      6.87704476	     -3.22863914	    -13.81337600	      5.57895900	     -0.48718125	     -0.11468342	      3.39284557	     -0.11439693	      1.17694846
      1.13300000	     -2.06012290	      3.65468904	     -1.79993827	      0.09934998	      1.06118831	      0.32849430	     25.92686588	     -2.19679973	      1.58344959	    -66.09227508	      1.84901346	    -16.54355559	      3.67226630	     12.14408688	      6.88466844	     -3.09951427	    -13.65510623	      5.69951219	     -0.53288995	     -0.12441154	      3.40378927	     -0.04240811	      1.13533951
      1.13716667	     -2.07683908	      3.61657662	     -1.82220911	      0.10451610	      1.06174397	      0.32849183	     26.35351651	     -2.07471804	      1.82366486	    -65.28789645	      2.19495190	    -16.66878659	      3.63458446	     11.77671344	      6.87786727	     -2.99443980	    -13.51205932	      5.86094742	     -0.63661166	     -0.13645918	      3.40928917	      0.01676094	      1.09141454
      1.14133333	     -2.09639330	      3.57478033	     -1.83382154	      0.10967874	      1.06227225	      0.32848417	     26.75889276	     -1.95231086	      2.04964482	    -64.41253747	      2.48990635	    -16.80886346	      3.59500864	     11.41048990	      6.87004464	     -2.86767234	    -13.36348308	      6.00925223	     -0.74991457	     -0.14957126	      3.40537497	      0.07120450	      1.04726160
